# xmcd
#
# Track frame offsets:
#	183
#	11223
#	22215
#	32243
#	44303
#	56520
#	66838
#	74638
#	86628
#	95915
#	109248
#	120060
#	133218
#	145560
#
# Disc length: 2100 seconds
#
# Revision: 1
# Processed by: cddbd v1.5.1PL0 Copyright (c) Steve Scherf et al.
# Submitted via: audiograbber 1.83.01
#
DISCID=ce08320e
DTITLE=Various Artist - Greatest Hits of 1960
DYEAR=1960
DGENRE=Oldie
TTITLE0=Roy Orbison - Only The Lonely
TTITLE1=Bobby Vee - Ruber Ball
TTITLE2=The Drifters - Save The Last Dance For Me
TTITLE3=Brook Benton - Kiddio
TTITLE4=The Everly Brothers - Let It Be Me
TTITLE5=Jim Reeves - Am I Loving You
TTITLE6=Fats Domino - My Girl Josephine
TTITLE7=Bobby Rydell - Volare
TTITLE8=Duane Eddy - Because They're Young
TTITLE9=Ray Peterson - Tell Laura I Love Her
TTITLE10=The Fenderman - Mule Skinner Blues
TTITLE11=The Platters - Harbour Lights
TTITLE12=Jerry Lee Lewis - Crazy Arms
TTITLE13=Sandy Posey - Everybody's Somebody's Fool
EXTD=
EXTT0=
EXTT1=
EXTT2=
EXTT3=
EXTT4=
EXTT5=
EXTT6=
EXTT7=
EXTT8=
EXTT9=
EXTT10=
EXTT11=
EXTT12=
EXTT13=
PLAYORDER=
